<?xml version="1.0" encoding="UTF-8" standalone="no"?>
<svg
   width="1200pt"
   height="1200pt"
   version="1.1"
   viewBox="0 0 1200 1200"
   id="svg299"
   sodipodi:docname="Baseweight_Canvas.svg"
   inkscape:version="1.2.2 (b0a8486541, 2022-12-01)"
   xmlns:inkscape="http://www.inkscape.org/namespaces/inkscape"
   xmlns:sodipodi="http://sodipodi.sourceforge.net/DTD/sodipodi-0.dtd"
   xmlns="http://www.w3.org/2000/svg"
   xmlns:svg="http://www.w3.org/2000/svg">
  <defs
     id="defs303" />
  <sodipodi:namedview
     id="namedview301"
     pagecolor="#ffffff"
     bordercolor="#666666"
     borderopacity="1.0"
     inkscape:showpageshadow="2"
     inkscape:pageopacity="0.0"
     inkscape:pagecheckerboard="0"
     inkscape:deskcolor="#d1d1d1"
     inkscape:document-units="pt"
     showgrid="false"
     inkscape:zoom="0.523125"
     inkscape:cx="799.04421"
     inkscape:cy="800"
     inkscape:window-width="1920"
     inkscape:window-height="1043"
     inkscape:window-x="1920"
     inkscape:window-y="0"
     inkscape:window-maximized="1"
     inkscape:current-layer="svg299" />
  <path
     d="m975 731.26h-75v-543.74c0-10.312-8.4375-18.75-18.75-18.75h-150v-56.25c0-10.312-8.4375-18.75-18.75-18.75h-225c-10.312 0-18.75 8.4375-18.75 18.75v56.25h-150c-10.312 0-18.75 8.4375-18.75 18.75v543.74h-75c-10.312 0-18.75 8.4375-18.75 18.75v75c0 10.312 8.4375 18.75 18.75 18.75h121.5l-101.25 236.44c-2.4375 5.8125-1.875 12.375 1.6875 17.625 3.375 5.25 9.1875 8.4375 15.562 8.4375h75c7.5 0 14.25-4.5 17.25-11.438l59.438-138.56h371.63l59.438 138.56c3 6.9375 9.75 11.438 17.25 11.438h75c6.375 0 12.188-3.1875 15.562-8.4375 3.5625-5.25 4.125-11.812 1.6875-17.625l-101.25-236.44h121.5c10.312 0 18.75-8.4375 18.75-18.75v-75c0-10.312-8.4375-18.75-18.75-18.75zm-468.74-600h187.5v37.5h-187.5zm-76.125 787.5 32.25-75h275.26l32.25 75zm526.13-112.5h-712.5v-37.5h712.5z"
     id="path297" />
  <path
     d="m 562.81307,371.49977 c 1.45,-5.7988 -2.2264,-11.592 -7.916,-13.0424 l -31.43603,-7.5796 c -5.9088,-1.3344 -11.7028,2.1172 -13.0416,7.916 l -26.4172,109.352 c -1.45,5.798 2.1172,11.592 7.9156,13.0416 l 31.5448,7.5804 c 5.6876,1.4496 11.59203,-2.1176 12.93123,-7.916 z"
     style="fill:#ffffff;stroke:#7d7d7d;stroke-width:1.76;stroke-miterlimit:4;stroke-dasharray:none;stroke-opacity:1"
     id="path263" />
  <path
     d="m 580.08667,336.64377 c 6.892,-4.8236 15.278,-8.0408 24.35,-7.3532 12.0624,1.0312 21.936,8.386 27.792,17.458 l 35.15,69.72 47.9,32.9656 c 4.1328,3.1016 6.5467,8.2704 6.2016,13.6704 -0.6908,8.7264 -8.2704,15.1624 -16.9968,14.472 -2.5296,-0.2296 -4.5984,-1.1468 -7.1236,-2.2984 l -52.264,-36.0672 c -1.608,-1.2624 -2.986,-2.8704 -3.9032,-4.5936 l -13.2092,-26.0736 -15.7344,69.492 61.796,72.936 c 1.2672,2.2984 2.2984,4.8236 2.7548,7.4688 l 16.7719,88.20798 c -0.1159,1.9532 0.2249,3.1016 0.1109,4.828 -1.0312,12.9752 -12.4032,22.6264 -25.3828,21.5908 -10.684,-0.8016 -18.72,-8.842 -21.25,-18.6092 l -15.8548,-82.58398 -50.076,-55.016 -11.712,53.524 c -0.3408,2.5248 -3.6768,7.8092 -4.7096,9.9936 l -48.12803,81.20398 c -4.8236,7.464 -12.864,12.178 -22.0516,11.486 -12.9796,-1.0312 -22.742,-12.4032 -21.7064,-25.3828 0.2296,-3.6764 1.8392,-7.4688 3.216,-10.1092 l 44.8,-75.23598 37.21363,-165.4 -24.35003,19.642 -12.864,59.04 c -1.7232,7.464 -8.6156,13.6704 -16.772,12.9796 -8.7312,-0.6908 -15.1624,-8.1548 -14.472,-16.886 0.116,-0.6908 0.116,-1.378 0.3456,-2.0688 l 15.3936,-68.8 c 0.8016,-2.986 2.5248,-5.6296 4.8236,-7.5844 z"
     style="fill:#ffffff;stroke:#7d7d7d;stroke-width:1.72;stroke-miterlimit:4;stroke-dasharray:none;stroke-opacity:1"
     id="path265" />
  <a
     style="fill:#ffffff;stroke:#7d7d7d;stroke-width:4;stroke-miterlimit:4;stroke-dasharray:none;stroke-opacity:1"
     id="a269"
     transform="matrix(0.4,0,0,0.4,351.54264,252.68776)">
    <path
       d="m 645.15,174 c 47.965,3.73 89.879,-32.16 93.625,-79.836 3.73,-48.238 -32.172,-89.879 -80.125,-93.898 -47.664,-3.73 -89.594,32.16 -93.613,80.113 -3.73,47.949 32.164,89.879 80.113,93.621 z"
       style="fill:#ffffff;stroke:#7d7d7d;stroke-width:4;stroke-miterlimit:4;stroke-dasharray:none;stroke-opacity:1"
       id="path267" />
  </a>
</svg>
